<svg xmlns="http://www.w3.org/2000/svg" viewBox="0 0 21.3 28.61"><defs><style>.cls-1,.cls-2{fill:#fff;}.cls-2{stroke:#75990b;stroke-miterlimit:10;}</style></defs><g id="Layer_2" data-name="Layer 2"><g id="Main"><path class="cls-1" d="M19.6,3.05H1.7a1.71,1.71,0,0,0-1.55,1,1.83,1.83,0,0,0-.15.7V26.9a1.71,1.71,0,0,0,1.7,1.71H19.6a1.73,1.73,0,0,0,1.7-1.71V4.75A1.7,1.7,0,0,0,19.6,3.05Zm-2,22.82H3.72a1,1,0,0,1,0-2.05H17.58a1,1,0,0,1,0,2.05Zm0-4.26H3.72a1,1,0,0,1,0-2.05H17.58a1,1,0,0,1,0,2.05Zm0-4.26H3.72a1,1,0,0,1,0-2.05H17.58a1,1,0,0,1,0,2.05Zm0-4.26H3.72a1,1,0,0,1-.85-1,1,1,0,0,1,.85-1H17.58a1,1,0,0,1,.85,1A1,1,0,0,1,17.58,13.09Zm0-4.26H3.72a1,1,0,0,1-.85-1,1,1,0,0,1,.85-1H17.58a1,1,0,0,1,.85,1A1,1,0,0,1,17.58,8.83Z"/><rect class="cls-2" x="4.33" y="0.5" width="12.64" height="4.29" rx="2"/></g></g></svg>