<svg xmlns="http://www.w3.org/2000/svg" viewBox="0 0 22.39 16.35"><defs><style>.cls-1{fill:#fff;}</style></defs><g id="Layer_2" data-name="Layer 2"><g id="Main"><polygon class="cls-1" points="0 3.44 0 14.52 6.66 8.98 0 3.44"/><path class="cls-1" d="M20.62,0H1.77A1.77,1.77,0,0,0,0,1.47L8.82,8.78,10.29,10a1.46,1.46,0,0,0,1.81,0l1.54-1.28,8.72-7.25A1.77,1.77,0,0,0,20.62,0Z"/><polygon class="cls-1" points="22.39 14.52 22.39 3.44 15.74 8.98 22.39 14.52"/><path class="cls-1" d="M13.29,11,12.1,12a1.46,1.46,0,0,1-1.81,0L8.75,10.72,7.86,10,.66,16a1.8,1.8,0,0,0,1.11.39H20.62A1.8,1.8,0,0,0,21.73,16l-7.2-6Z"/></g></g></svg>