<svg xmlns="http://www.w3.org/2000/svg" viewBox="0 0 34.12 25.06"><defs><style>.cls-1{fill:#fff;}</style></defs><g id="Layer_2" data-name="Layer 2"><g id="Main"><path class="cls-1" d="M12.84,20.07a.43.43,0,0,0,.41.3H29.19a.43.43,0,0,0,.43-.43.44.44,0,0,0-.43-.44H13.56c-.6-1.84-1.14-3.63-1.71-5.52-.3-1-.61-2-.93-3.06S10.4,9.14,10,8.06c-.7-2.34-2.12-6.92-2.14-7a.42.42,0,0,0-.41-.3H6.64a1,1,0,0,0-1-.79H1A1,1,0,0,0,0,.93v.58a1,1,0,0,0,1,.94h4.7a1,1,0,0,0,1-.79h.52c.33,1.06,1.44,4.67,2,6.65h0c.35,1.07.61,1.92.87,2.84h0c.32,1,.63,2.06.93,3.06C11.59,16.14,12.19,18.11,12.84,20.07Z"/><path class="cls-1" d="M33.14,4.85h-22a1,1,0,0,0-1,.93v.58a1,1,0,0,0,1,.93h.32l3.3,11.23a.43.43,0,0,0,.41.31H29.11a.43.43,0,0,0,.41-.31l3.3-11.23h.32a1,1,0,0,0,1-.93V5.78A1,1,0,0,0,33.14,4.85Z"/><path class="cls-1" d="M13.24,20.54A2.26,2.26,0,1,0,15.5,22.8,2.26,2.26,0,0,0,13.24,20.54Z"/><path class="cls-1" d="M29.43,20.54a2.26,2.26,0,1,0,2.25,2.26A2.26,2.26,0,0,0,29.43,20.54Z"/></g></g></svg>